<?xml version="1.0" standalone="no"?>
<!DOCTYPE svg PUBLIC "-//W3C//DTD SVG 20010904//EN"
 "http://www.w3.org/TR/2001/REC-SVG-20010904/DTD/svg10.dtd">
<svg version="1.0" xmlns="http://www.w3.org/2000/svg"
 width="267.000000pt" height="189.000000pt" viewBox="0 0 267.000000 189.000000"
 preserveAspectRatio="xMidYMid meet">
<metadata>
Created by potrace 1.16, written by Peter Selinger 2001-2019
</metadata>
<g transform="translate(0.000000,189.000000) scale(0.100000,-0.100000)"
fill="#000000" stroke="none">
<path d="M2 948 l3 -943 1330 0 1330 0 3 943 2 942 -1335 0 -1335 0 2 -942z
m861 256 c86 -17 149 -14 222 11 13 4 5 -8 -21 -33 -58 -57 -134 -74 -226 -53
-45 11 -48 0 -18 -59 20 -40 21 -40 80 -40 57 0 60 -1 60 -25 0 -23 -4 -25
-41 -25 -35 0 -40 -2 -34 -17 4 -10 10 -41 12 -69 12 -120 -98 -217 -209 -185
-24 7 -58 24 -75 37 l-33 25 26 39 26 39 33 -35 c26 -27 40 -35 62 -32 24 3
28 8 31 40 4 44 -24 113 -69 169 -23 29 -27 39 -15 39 11 0 16 10 16 33 0 31
21 73 44 89 17 11 -43 21 -95 15 -27 -3 -49 -4 -49 -2 0 10 78 50 109 55 41 8
43 8 164 -16z m711 -44 c85 -91 113 -185 84 -284 -14 -45 -93 -133 -146 -160
-30 -16 -34 -15 -71 3 -58 30 -117 103 -131 162 -24 100 11 185 114 270 39 32
78 59 87 59 9 0 37 -23 63 -50z m206 -122 l0 -173 28 35 c15 19 36 45 47 58
l21 24 57 -76 c32 -42 58 -76 60 -76 1 0 1 85 -1 190 l-3 190 56 0 55 0 0
-154 0 -154 -76 -94 c-42 -51 -78 -95 -81 -98 -3 -3 -23 15 -45 40 l-39 45
-42 -48 c-36 -40 -47 -47 -79 -47 l-38 0 0 255 0 255 40 0 40 0 0 -172z m-631
-298 c10 0 32 5 50 11 l31 11 -22 36 c-30 49 -29 116 3 168 l24 39 6 -53 c5
-36 18 -70 41 -105 34 -51 58 -107 58 -133 0 -11 -33 -14 -165 -14 l-165 0 0
199 0 199 33 19 c18 11 44 33 57 50 l25 29 3 -228 c2 -213 4 -228 21 -228z"/>
<path d="M1415 1090 c-35 -77 4 -217 82 -292 33 -32 35 -32 48 -14 19 25 29
97 21 141 -15 79 -89 205 -120 205 -7 0 -21 -18 -31 -40z"/>
</g>
</svg>
